<svg width="24" height="24" viewBox="0 0 24 24" fill="none" xmlns="http://www.w3.org/2000/svg">
<path d="M2.97107 11.0001C4.97204 13.3052 8.27021 14.8103 12 14.8103C15.7297 14.8103 19.0279 13.3052 21.0289 11.0001" stroke="#C1C1C1" stroke-width="2.5" stroke-linecap="round"/>
<path fill-rule="evenodd" clip-rule="evenodd" d="M6.74956 13.8299C7.32831 14.0146 7.62477 14.7055 7.41171 15.373L6.44308 18.408C6.23003 19.0755 5.58814 19.467 5.00938 19.2823C4.43063 19.0975 4.13418 18.4066 4.34724 17.7391L5.31586 14.7041C5.52892 14.0366 6.17081 13.6451 6.74956 13.8299Z" fill="#C1C1C1"/>
<path fill-rule="evenodd" clip-rule="evenodd" d="M17.4039 14.0154C16.8251 14.2001 16.5169 14.8542 16.7155 15.4763L17.6181 18.3046C17.8167 18.9267 18.4468 19.2813 19.0256 19.0966C19.6043 18.9119 19.9125 18.2578 19.714 17.6357L18.8113 14.8074C18.6128 14.1853 17.9826 13.8307 17.4039 14.0154Z" fill="#C1C1C1"/>
<path fill-rule="evenodd" clip-rule="evenodd" d="M12 15.0664C12.6075 15.0664 13.1 15.5678 13.1 16.1862L13.1 19.5029C13.1 20.1214 12.6075 20.6227 12 20.6227C11.3925 20.6227 10.9 20.1214 10.9 19.5029L10.9 16.1862C10.9 15.5678 11.3925 15.0664 12 15.0664Z" fill="#C1C1C1"/>
</svg>
