<?xml version="1.0" encoding="UTF-8"?>
<svg width="24px" height="24px" viewBox="0 0 24 24" version="1.1" xmlns="http://www.w3.org/2000/svg" xmlns:xlink="http://www.w3.org/1999/xlink">
    <title>Group</title>
    <g id="Page-1" stroke="none" stroke-width="1" fill="none" fill-rule="evenodd">
        <g id="Group" transform="translate(3.000000, 2.000000)">
            <path d="M9.02893,7.57 C9.63643,7.57 10.12893,7.98149398 10.12893,8.48900869 L10.12893,11.2109913 C10.12893,11.7185881 9.63643,12.13 9.02893,12.13 C8.42143,12.13 7.92893,11.7185881 7.92893,11.2109913 L7.92893,8.48900869 C7.92893,7.98149398 8.42143,7.57 9.02893,7.57 Z" id="Path" fill="#C1C1C1"></path>
            <g id="eye-close" transform="translate(9.030000, 4.810000) scale(1, -1) translate(-9.030000, -4.810000) ">
                <path d="M0,0 C2.00121046,2.42496697 5.29977679,4.00833333 9.030015,4.00833333 C12.7601632,4.00833333 16.0587595,2.42496697 18.06,0" id="Path" stroke="#C1C1C1" stroke-width="2.5" stroke-linecap="round"></path>
                <path d="M4.1015656,2.45132633 C4.61688411,2.63828433 4.88085184,3.33763075 4.6911434,4.01329109 L3.82867607,7.08539466 C3.63897653,7.761055 3.06743822,8.15734118 2.55211081,7.97038318 C2.0367923,7.78332396 1.77283347,7.08397754 1.96254191,6.4083172 L2.82500034,3.33621363 C3.01470878,2.66055329 3.58624709,2.26426711 4.1015656,2.45132633 Z" id="Path" fill="#C1C1C1"></path>
                <path d="M14.942381,3.25208605 C14.4132088,3.42362605 14.1314346,4.03112101 14.3130062,4.60889598 L15.1382149,7.2356778 C15.3197864,7.81345277 15.8958601,8.14278729 16.4250323,7.97124729 C16.9541131,7.79970728 17.2358872,7.19221233 17.0544071,6.61443735 L16.2291069,3.98765554 C16.0476268,3.40988056 15.4714618,3.08054604 14.942381,3.25208605 Z" id="Path" fill="#C1C1C1"></path>
                <path d="M9.50526316,4.00833333 C10.0302129,4.00833333 10.4557895,4.51472962 10.4557895,5.13929176 L10.4557895,8.48904157 C10.4557895,9.11370471 10.0302129,9.62 9.50526316,9.62 C8.9803134,9.62 8.55473684,9.11370471 8.55473684,8.48904157 L8.55473684,5.13929176 C8.55473684,4.51472962 8.9803134,4.00833333 9.50526316,4.00833333 Z" id="Path" fill="#C1C1C1"></path>
            </g>
            <g id="eye-close" transform="translate(0.000000, 10.000000)">
                <path d="M0,0 C2.00097,2.3051 5.29914,3.8102 9.02893,3.8102 C12.75863,3.8102 16.05683,2.3051 18.05783,0" id="Path" stroke="#C1C1C1" stroke-width="2.5" stroke-linecap="round"></path>
                <path d="M3.77849,2.8298 C4.35724,3.0145 4.6537,3.7054 4.44064,4.3729 L3.47201,7.4079 C3.25896,8.0754 2.61707,8.4669 2.03831,8.2822 C1.45956,8.0974 1.16311,7.4065 1.37617,6.739 L2.34479,3.704 C2.55785,3.0365 3.19974,2.645 3.77849,2.8298 Z" id="Path" fill="#C1C1C1"></path>
                <path d="M14.43283,3.0153 C13.85403,3.2 13.54583,3.8541 13.74443,4.4762 L14.64703,7.3045 C14.84563,7.9266 15.47573,8.2812 16.05453,8.0965 C16.63323,7.9118 16.94143,7.2577 16.74293,6.6356 L15.84023,3.8073 C15.64173,3.1852 15.01153,2.8306 14.43283,3.0153 Z" id="Path" fill="#C1C1C1"></path>
                <path d="M9.02893,4.0663 C9.63643,4.0663 10.12893,4.5677 10.12893,5.1861 L10.12893,8.5028 C10.12893,9.1213 9.63643,9.6226 9.02893,9.6226 C8.42143,9.6226 7.92893,9.1213 7.92893,8.5028 L7.92893,5.1861 C7.92893,4.5677 8.42143,4.0663 9.02893,4.0663 Z" id="Path" fill="#C1C1C1"></path>
            </g>
        </g>
    </g>
</svg>