<svg width="104" height="106" viewBox="0 0 104 106" fill="none" xmlns="http://www.w3.org/2000/svg">
<path d="M22.1221 69.6738C17.6104 69.6738 13.7285 68.7803 10.4766 66.9932C7.22461 65.1768 4.71973 62.7451 2.96191 59.6982C1.2041 56.6514 0.325195 53.2676 0.325195 49.5469C0.325195 46.3242 0.955078 43.4238 2.21484 40.8457C3.47461 38.2383 5.18848 36.0264 7.35645 34.21C9.52441 32.3936 11.9707 31.0605 14.6953 30.2109C15.1348 26.1094 16.2773 22.2861 18.123 18.7412C19.9688 15.1963 22.3564 12.0908 25.2861 9.4248C28.2158 6.72949 31.541 4.63477 35.2617 3.14062C39.0117 1.61719 43.0107 0.855469 47.2588 0.855469C51.8877 0.855469 56.0479 1.61719 59.7393 3.14062C63.4307 4.63477 66.668 6.72949 69.4512 9.4248C72.2637 12.0908 74.5488 15.1523 76.3066 18.6094C80.1152 18.6094 83.6455 19.2539 86.8975 20.543C90.1494 21.8027 92.9912 23.5898 95.4229 25.9043C97.8545 28.2188 99.7441 30.9287 101.092 34.0342C102.469 37.1104 103.157 40.4648 103.157 44.0977C103.157 47.6426 102.498 50.9678 101.18 54.0732C99.8906 57.1494 98.0596 59.8594 95.6865 62.2031C93.3428 64.5469 90.5742 66.3779 87.3809 67.6963C84.2168 69.0146 80.7598 69.6738 77.0098 69.6738H22.1221ZM22.21 60.5332H77.1855C80.4375 60.5332 83.3232 59.8154 85.8428 58.3799C88.3916 56.915 90.3838 54.9668 91.8193 52.5352C93.2842 50.0742 94.0166 47.335 94.0166 44.3174C94.0166 41.2705 93.2695 38.502 91.7754 36.0117C90.2812 33.4922 88.0547 31.4854 85.0957 29.9912C82.166 28.4971 78.5186 27.75 74.1533 27.75C72.7764 27.75 71.6924 27.5303 70.9014 27.0908C70.1396 26.6221 69.4951 25.8311 68.9678 24.7178C66.5654 19.9717 63.5186 16.3389 59.8271 13.8193C56.1357 11.2705 51.9463 9.99609 47.2588 9.99609C44.2412 9.99609 41.3701 10.5527 38.6455 11.666C35.9502 12.7793 33.5332 14.3906 31.3945 16.5C29.2559 18.5801 27.498 21.085 26.1211 24.0146C24.7734 26.915 23.9238 30.1816 23.5723 33.8145C23.3965 35.1328 23.0596 36.1289 22.5615 36.8027C22.0635 37.4766 21.1406 37.9893 19.793 38.3408C16.1602 39.3076 13.5234 40.8018 11.8828 42.8232C10.2422 44.8447 9.42188 47.1592 9.42188 49.7666C9.42188 51.7881 9.89062 53.6191 10.8281 55.2598C11.7949 56.9004 13.2158 58.1895 15.0908 59.127C16.9951 60.0645 19.3682 60.5332 22.21 60.5332ZM23.5723 91.3389C23.1621 92.0713 22.5615 92.54 21.7705 92.7451C20.9795 92.9795 20.2178 92.8916 19.4854 92.4814C18.6943 92.0713 18.1963 91.4707 17.9912 90.6797C17.8154 89.8887 17.9473 89.127 18.3867 88.3945L24.0117 78.5947C24.4805 77.833 25.0957 77.335 25.8574 77.1006C26.6191 76.8662 27.3809 76.9688 28.1426 77.4082C28.9043 77.8477 29.3877 78.4629 29.5928 79.2539C29.7979 80.0449 29.666 80.8213 29.1973 81.583L23.5723 91.3389ZM33.8555 103.819C33.4453 104.552 32.8447 105.021 32.0537 105.226C31.292 105.46 30.5449 105.372 29.8125 104.962C29.0508 104.522 28.582 103.907 28.4062 103.116C28.2305 102.325 28.3477 101.549 28.7578 100.787L41.5898 78.5947C42.0293 77.833 42.6299 77.3496 43.3916 77.1445C44.1826 76.9102 44.959 76.998 45.7207 77.4082C46.4531 77.8477 46.9072 78.4629 47.083 79.2539C47.2881 80.0449 47.1709 80.8066 46.7314 81.5391L33.8555 103.819ZM58.5967 91.2949C58.1572 92.0273 57.5273 92.5107 56.707 92.7451C55.916 92.9795 55.1543 92.8916 54.4219 92.4814C53.6602 92.042 53.1768 91.4268 52.9717 90.6357C52.7959 89.8447 52.9277 89.0977 53.3672 88.3945L58.9922 78.5508C59.4609 77.7891 60.0762 77.291 60.8379 77.0566C61.5996 76.8223 62.3613 76.9248 63.123 77.3643C63.8848 77.8037 64.3682 78.4336 64.5732 79.2539C64.7783 80.0449 64.6465 80.8066 64.1777 81.5391L58.5967 91.2949ZM68.8359 103.775C68.3965 104.508 67.7959 104.977 67.0342 105.182C66.2725 105.416 65.5107 105.328 64.749 104.918C64.0166 104.479 63.5479 103.863 63.3428 103.072C63.167 102.281 63.2988 101.52 63.7383 100.787L76.5703 78.5508C77.0098 77.7891 77.625 77.3057 78.416 77.1006C79.207 76.8662 79.9541 76.9541 80.6572 77.3643C81.4189 77.8037 81.8877 78.4189 82.0635 79.21C82.2686 80.001 82.1514 80.7627 81.7119 81.4951L68.8359 103.775Z" fill="black"/>
</svg>
