<svg width="89" height="82" viewBox="0 0 89 82" fill="none" xmlns="http://www.w3.org/2000/svg">
<path d="M14.4854 81.7891C9.88574 81.7891 6.42871 80.6465 4.11426 78.3613C1.8291 76.1055 0.686523 72.707 0.686523 68.166V14.5088C0.686523 9.96777 1.8291 6.56934 4.11426 4.31348C6.42871 2.02832 9.88574 0.885742 14.4854 0.885742H74.5146C79.1143 0.885742 82.5566 2.02832 84.8418 4.31348C87.127 6.56934 88.2695 9.96777 88.2695 14.5088V68.166C88.2695 72.707 87.127 76.1055 84.8418 78.3613C82.5566 80.6465 79.1143 81.7891 74.5146 81.7891H14.4854ZM13.8262 74.7139H75.0859C77.0488 74.7139 78.5576 74.1865 79.6123 73.1318C80.667 72.1064 81.1943 70.583 81.1943 68.5615V27.1211C81.1943 25.0996 80.667 23.5762 79.6123 22.5508C78.5576 21.4961 77.0488 20.9688 75.0859 20.9688H13.8262C11.8926 20.9688 10.3984 21.4961 9.34375 22.5508C8.28906 23.5762 7.76172 25.0996 7.76172 27.1211V68.5615C7.76172 70.583 8.28906 72.1064 9.34375 73.1318C10.3984 74.1865 11.8926 74.7139 13.8262 74.7139ZM21.4727 37.3164C20.6816 37.3164 20.0225 37.0527 19.4951 36.5254C18.9678 35.998 18.7041 35.3389 18.7041 34.5479C18.7041 33.8154 18.9678 33.2002 19.4951 32.7021C20.0225 32.1748 20.6816 31.9111 21.4727 31.9111H67.6152C68.4062 31.9111 69.0508 32.1748 69.5488 32.7021C70.0762 33.2002 70.3398 33.8154 70.3398 34.5479C70.3398 35.3389 70.0762 35.998 69.5488 36.5254C69.0508 37.0527 68.4062 37.3164 67.6152 37.3164H21.4727ZM21.4727 50.5439C20.6816 50.5439 20.0225 50.2949 19.4951 49.7969C18.9678 49.2695 18.7041 48.6396 18.7041 47.9072C18.7041 47.1455 18.9678 46.501 19.4951 45.9736C20.0225 45.417 20.6816 45.1387 21.4727 45.1387H67.6152C68.4062 45.1387 69.0508 45.417 69.5488 45.9736C70.0762 46.501 70.3398 47.1455 70.3398 47.9072C70.3398 48.6396 70.0762 49.2695 69.5488 49.7969C69.0508 50.2949 68.4062 50.5439 67.6152 50.5439H21.4727ZM21.4727 63.8154C20.6816 63.8154 20.0225 63.5664 19.4951 63.0684C18.9678 62.541 18.7041 61.8965 18.7041 61.1348C18.7041 60.373 18.9678 59.7285 19.4951 59.2012C20.0225 58.6738 20.6816 58.4102 21.4727 58.4102H50.7842C51.5752 58.4102 52.2197 58.6738 52.7178 59.2012C53.2451 59.7285 53.5088 60.373 53.5088 61.1348C53.5088 61.8965 53.2451 62.541 52.7178 63.0684C52.2197 63.5664 51.5752 63.8154 50.7842 63.8154H21.4727Z" fill="black"/>
</svg>
