<svg width="139" height="139" viewBox="0 0 139 139" fill="none" xmlns="http://www.w3.org/2000/svg">
<circle cx="69.5" cy="69.5" r="69.5" fill="#EFEFEF"/>
<path d="M68.8758 36.3736C61.512 36.3736 55.52 43.8324 55.52 52.9977C55.52 62.1671 61.512 69.6259 68.8758 69.6259C76.2397 69.6259 82.2303 62.1671 82.2303 52.9977C82.2303 43.8324 76.2397 36.3736 68.8758 36.3736ZM68.8758 76.4785C57.7337 76.4785 48.6674 65.9467 48.6674 52.9977C48.6674 40.0542 57.7337 29.521 68.8758 29.521C80.0179 29.521 89.0829 40.0542 89.0829 52.9977C89.0829 65.9467 80.0179 76.4785 68.8758 76.4785Z" fill="white"/>
<path d="M68.6759 109.575C51.1149 109.575 39.1858 109.152 33.5913 103.505C31.5931 101.488 30.5933 98.9762 30.6201 96.0437C30.6843 88.9543 40.215 77.7466 52.4037 73.9201C54.2079 73.354 56.1312 74.3591 56.6986 76.1646C57.2648 77.9701 56.261 79.892 54.4555 80.4608C43.9478 83.76 37.5008 92.9467 37.4726 96.1053C37.4619 97.1881 37.7671 97.9831 38.4604 98.6817C42.4622 102.721 56.9971 102.721 68.6759 102.721C70.5671 102.721 72.1022 104.256 72.1022 106.149C72.1022 108.04 70.5671 109.575 68.6759 109.575Z" fill="white"/>
<path d="M68.8753 94.6138C66.9855 94.6138 65.4517 93.0787 65.4491 91.1915C65.4477 89.2964 66.9802 87.7612 68.8727 87.7612C77.8961 87.7519 82.903 81.4467 83.8011 78.5718C84.3646 76.7664 86.2865 75.7559 88.092 76.3207C89.8988 76.8868 90.9053 78.8087 90.3418 80.6142C88.5283 86.4188 80.6706 94.6004 68.8794 94.6138" fill="white"/>
<path d="M68.9166 94.6138H68.9139C57.1227 94.6004 49.265 86.4188 47.4515 80.6142C46.8867 78.8087 47.8945 76.8868 49.7 76.3207C51.5068 75.7559 53.4287 76.7664 53.9922 78.5718C54.8902 81.4467 59.8958 87.7519 68.9206 87.7612C70.8131 87.7612 72.3456 89.2964 72.3429 91.1915C72.3415 93.0787 70.8077 94.6138 68.9166 94.6138Z" fill="white"/>
<path d="M74.5797 109.62C73.2681 109.62 72.0528 109.611 70.9714 109.6C70.1992 109.595 69.4911 109.588 68.8634 109.587C66.9723 109.583 65.4412 108.046 65.4452 106.154C65.4492 104.266 66.9817 102.733 68.8715 102.733H68.8782C69.5193 102.737 70.2406 102.741 71.0303 102.748C76.6194 102.796 85.9734 102.878 92.8367 101.312C94.681 100.89 96.5186 102.045 96.9402 103.892C97.3605 105.735 96.2054 107.573 94.3611 107.993C88.1202 109.416 80.4057 109.62 74.5797 109.62Z" fill="white"/>
<path d="M97.4958 88.8141C96.6634 88.8141 95.8295 88.5157 95.1697 87.9067C91.8599 84.8431 87.1407 81.8625 83.1469 80.3033C81.3843 79.6153 80.5116 77.6305 81.1996 75.8665C81.8875 74.1052 83.8737 73.2312 85.6364 73.9205C90.4372 75.7916 95.8724 79.2205 99.822 82.873C101.211 84.1578 101.297 86.3274 100.012 87.714C99.3375 88.4447 98.4167 88.8141 97.4958 88.8141Z" fill="white"/>
<path d="M108.637 96.7072C108.637 93.9421 106.396 91.7056 103.634 91.7016C100.87 91.7016 98.6297 93.9421 98.6283 96.7072C98.6283 99.4696 100.867 101.71 103.631 101.71C106.395 101.71 108.635 99.4723 108.637 96.7072Z" fill="#1F48DA"/>
</svg>
