<svg width="93" height="93" viewBox="0 0 93 93" fill="none" xmlns="http://www.w3.org/2000/svg">
<path d="M8.79492 27.2432L11.7832 20.5635C16.5 26.5986 22.2861 31.2861 29.1416 34.626C36.0264 37.9365 43.3506 39.5771 51.1143 39.5479C57.1201 39.5186 62.8916 38.4639 68.4287 36.3838C73.9658 34.2744 78.9902 31.2422 83.502 27.2871L86.5342 33.3076C81.5537 37.3799 76.0312 40.5146 69.9668 42.7119C63.9023 44.8799 57.6182 45.9785 51.1143 46.0078C45.6943 46.0078 40.4209 45.2754 35.2939 43.8105C30.167 42.3457 25.3477 40.207 20.8359 37.3945C16.3535 34.582 12.3398 31.1982 8.79492 27.2432ZM3.91699 52.1162L5.63086 44.9531C11.1094 50.1387 17.1738 54.2695 23.8242 57.3457C30.5039 60.3926 37.4326 62.3262 44.6104 63.1465C51.7881 63.9668 58.9219 63.6299 66.0117 62.1357C73.1309 60.6416 79.8838 57.9756 86.2705 54.1377L86.4463 61.4766C79.8252 65.0215 72.8818 67.4678 65.6162 68.8154C58.3799 70.1338 51.1289 70.3828 43.8633 69.5625C36.5977 68.7129 29.5518 66.8379 22.7256 63.9375C15.9287 61.0078 9.65918 57.0674 3.91699 52.1162ZM25.9336 82.3945C24.6445 78.7617 23.6631 75.0996 22.9893 71.4082C22.3447 67.7168 22.0078 63.9814 21.9785 60.2021C21.7148 52.8193 22.5352 45.627 24.4395 38.625C26.3438 31.623 29.2002 25.0459 33.0088 18.8936C36.8467 12.7119 41.5342 7.2041 47.0713 2.37012L53.8828 5.13867C48.2871 9.5625 43.541 14.6895 39.6445 20.5195C35.748 26.3203 32.833 32.5898 30.8994 39.3281C28.9658 46.0371 28.1455 52.9805 28.4385 60.1582C28.4678 64.2891 28.9219 68.3613 29.8008 72.375C30.6797 76.3887 31.9395 80.2852 33.5801 84.0645L25.9336 82.3945ZM55.333 86.7891C50.9678 80.5781 47.6426 73.8838 45.3574 66.7061C43.0723 59.5283 41.9297 52.1162 41.9297 44.4697C41.9297 37.3799 42.9258 30.4658 44.918 23.7275C46.9102 16.96 49.8105 10.6318 53.6191 4.74316L59.9033 6.94043C56.1533 12.4482 53.2969 18.3809 51.334 24.7383C49.4004 31.0957 48.4336 37.6729 48.4336 44.4697C48.4336 51.6475 49.5322 58.6055 51.7295 65.3438C53.9561 72.082 57.1641 78.3369 61.3535 84.1084L55.333 86.7891ZM80.7334 70.6611C75.3428 67.4385 70.6846 63.4688 66.7588 58.752C62.833 54.0059 59.8008 48.7471 57.6621 42.9756C55.5527 37.1748 54.4688 31.125 54.4102 24.8262C54.3809 21.3984 54.6592 18.0439 55.2451 14.7627C55.8311 11.4814 56.7393 8.27344 57.9697 5.13867L64.166 6.89648C63.0234 9.76758 62.1738 12.7119 61.6172 15.7295C61.0898 18.7178 60.8262 21.7354 60.8262 24.7822C60.9141 30.4951 61.9395 35.959 63.9023 41.1738C65.8652 46.3594 68.6484 51.0615 72.252 55.2803C75.8555 59.499 80.1475 62.9854 85.1279 65.7393L80.7334 70.6611ZM27.8672 45.5244C25.7578 45.5244 23.9707 44.792 22.5059 43.3271C21.041 41.8623 20.3086 40.0898 20.3086 38.0098C20.3086 35.9297 21.041 34.1719 22.5059 32.7363C23.9707 31.2715 25.7578 30.5391 27.8672 30.5391C29.918 30.5391 31.6611 31.2715 33.0967 32.7363C34.5615 34.1719 35.2939 35.9297 35.2939 38.0098C35.2939 40.0898 34.5615 41.8623 33.0967 43.3271C31.6611 44.792 29.918 45.5244 27.8672 45.5244ZM61.6611 49.1279C59.5518 49.1279 57.7646 48.4102 56.2998 46.9746C54.8643 45.5098 54.1465 43.7373 54.1465 41.6572C54.1465 39.6064 54.8643 37.8486 56.2998 36.3838C57.7646 34.9189 59.5518 34.1865 61.6611 34.1865C63.7119 34.1865 65.4551 34.9189 66.8906 36.3838C68.3555 37.8486 69.0879 39.6064 69.0879 41.6572C69.0879 43.7373 68.3555 45.5098 66.8906 46.9746C65.4551 48.4102 63.7119 49.1279 61.6611 49.1279ZM48.5215 73.9131C46.3828 73.9131 44.5811 73.1807 43.1162 71.7158C41.6514 70.2217 40.9189 68.4346 40.9189 66.3545C40.9189 64.2744 41.6514 62.502 43.1162 61.0371C44.5811 59.5723 46.3828 58.8398 48.5215 58.8398C50.5723 58.8398 52.3301 59.5723 53.7949 61.0371C55.2598 62.502 55.9922 64.2744 55.9922 66.3545C55.9922 68.4346 55.2598 70.2217 53.7949 71.7158C52.3301 73.1807 50.5723 73.9131 48.5215 73.9131ZM46.5 92.1064C40.2305 92.1064 34.3271 90.9053 28.79 88.5029C23.2529 86.1299 18.375 82.834 14.1562 78.6152C9.9375 74.3965 6.62695 69.5332 4.22461 64.0254C1.85156 58.4883 0.665039 52.5703 0.665039 46.2715C0.665039 40.002 1.85156 34.1133 4.22461 28.6055C6.62695 23.0684 9.92285 18.1904 14.1123 13.9717C18.3311 9.75293 23.209 6.45703 28.7461 4.08398C34.2832 1.68164 40.1865 0.480469 46.4561 0.480469C52.7256 0.480469 58.6289 1.68164 64.166 4.08398C69.7324 6.45703 74.6104 9.75293 78.7998 13.9717C83.0186 18.1904 86.3291 23.0684 88.7314 28.6055C91.1338 34.1133 92.335 40.002 92.335 46.2715C92.335 52.5703 91.1338 58.4883 88.7314 64.0254C86.3291 69.5332 83.0186 74.3965 78.7998 78.6152C74.6104 82.834 69.7471 86.1299 64.21 88.5029C58.6729 90.9053 52.7695 92.1064 46.5 92.1064ZM46.5 84.2842C51.6855 84.2842 56.5635 83.2881 61.1338 81.2959C65.7334 79.3037 69.7764 76.5645 73.2627 73.0781C76.7783 69.5918 79.5176 65.5635 81.4805 60.9932C83.4727 56.3936 84.4688 51.4863 84.4688 46.2715C84.4688 41.0859 83.4727 36.208 81.4805 31.6377C79.5176 27.0381 76.7783 22.9951 73.2627 19.5088C69.7471 16.0225 65.7041 13.2832 61.1338 11.291C56.5635 9.29883 51.6709 8.30273 46.4561 8.30273C41.2705 8.30273 36.3779 9.29883 31.7783 11.291C27.208 13.2832 23.1797 16.0225 19.6934 19.5088C16.207 22.9951 13.4678 27.0381 11.4756 31.6377C9.5127 36.208 8.53125 41.0859 8.53125 46.2715C8.53125 51.4863 9.5127 56.3936 11.4756 60.9932C13.4678 65.5635 16.207 69.5918 19.6934 73.0781C23.209 76.5645 27.252 79.3037 31.8223 81.2959C36.4219 83.2881 41.3145 84.2842 46.5 84.2842Z" fill="black"/>
</svg>
